<svg width="40" height="40" viewBox="0 0 40 40" fill="none" xmlns="http://www.w3.org/2000/svg">
<g clip-path="url(#clip0)">
<path d="M40 20C40 20.9012 39.9405 21.7877 39.8254 22.6572C39.7748 23.0359 39.7134 23.4122 39.6423 23.7845C39.5355 24.3445 39.4049 24.8962 39.2514 25.4382C36.8823 33.8409 29.1608 40 20 40C10.7993 40 3.04901 33.786 0.717468 25.3265C0.578003 24.8206 0.457153 24.306 0.357666 23.7845C0.290527 23.4366 0.233459 23.0856 0.185242 22.7322C0.0628662 21.8393 0 20.9265 0 20C0 8.95416 8.95416 0 20 0C31.0458 0 40 8.95416 40 20Z" fill="#C4FFFD"/>
<path d="M36.8372 6.32507C36.8372 8.67523 34.932 10.5801 32.5818 10.5801C30.2316 10.5801 28.3264 8.67523 28.3264 6.32507C28.3264 3.97491 30.2316 2.0697 32.5818 2.0697C34.932 2.0697 36.8372 3.97491 36.8372 6.32507Z" fill="#FAB510"/>
<path d="M39.6423 23.7845C39.5944 24.0344 39.5419 24.2825 39.4849 24.5291C37.4326 33.3926 29.4882 40 20 40C10.5118 40 2.56744 33.3926 0.515137 24.5291C0.458069 24.2825 0.405579 24.0344 0.357666 23.7845H39.6423Z" fill="#1EB1E4"/>
<path d="M33.7442 26.0751C33.7442 25.9295 33.136 25.8114 32.3856 25.8114C31.6351 25.8114 31.0266 25.9295 31.0266 26.0751C31.0266 26.2207 31.6351 26.3388 32.3856 26.3388C33.136 26.3388 33.7442 26.2207 33.7442 26.0751Z" fill="#96D6D4"/>
<path d="M31.5637 27.4865C31.5637 27.341 30.9555 27.2229 30.2051 27.2229C29.4547 27.2229 28.8462 27.341 28.8462 27.4865C28.8462 27.6324 29.4547 27.7505 30.2051 27.7505C30.9555 27.7505 31.5637 27.6324 31.5637 27.4865Z" fill="#96D6D4"/>
<path d="M18.5227 25.9894C18.5227 25.8438 17.9144 25.7257 17.164 25.7257C16.4136 25.7257 15.8054 25.8438 15.8054 25.9894C15.8054 26.1349 16.4136 26.253 17.164 26.253C17.9144 26.253 18.5227 26.1349 18.5227 25.9894Z" fill="#96D6D4"/>
<path d="M26.7154 36.4902C26.7154 36.2396 25.6689 36.0367 24.3784 36.0367C23.0878 36.0367 22.0413 36.2396 22.0413 36.4902C22.0413 36.7407 23.0878 36.658 24.3784 36.658C25.6689 36.658 26.7154 36.7407 26.7154 36.4902Z" fill="#96D6D4"/>
<path d="M21.4529 37.677C21.4529 37.4264 20.4065 37.2235 19.1159 37.2235C17.8253 37.2235 16.7789 37.4264 16.7789 37.677C16.7789 37.9275 17.8253 37.8448 19.1159 37.8448C20.4065 37.8448 21.4529 37.9275 21.4529 37.677Z" fill="#96D6D4"/>
<path d="M12.7405 32.2714C12.7405 32.0208 11.6943 31.8179 10.4035 31.8179C9.11286 31.8179 8.06642 32.0212 8.06642 32.2714C8.06642 32.522 9.11286 32.4392 10.4035 32.4392C11.6943 32.4392 12.7405 32.522 12.7405 32.2714Z" fill="#96D6D4"/>
<path d="M37.5744 23.7499H2.42727L8.03945 12.6211C8.39315 11.9189 9.2803 11.683 9.93673 12.1148L11.8804 13.3947C12.5197 13.8162 13.3825 13.6037 13.7539 12.9345L17.7547 5.71739C18.0535 5.17845 18.6297 4.96452 19.1521 5.0634C19.5464 5.13756 19.9105 5.38902 20.1024 5.812L22.2387 10.523C22.6061 11.3335 23.6242 11.5279 24.2656 11.0021C24.3514 10.9319 24.4298 10.8495 24.5 10.7531C24.7646 10.389 25.1638 10.212 25.562 10.212C25.7268 10.212 25.891 10.2422 26.0445 10.3027C26.3189 10.4086 26.5612 10.6088 26.7186 10.8993L29.5653 16.1395C29.9849 16.9116 31.0289 17.0626 31.6503 16.4413L31.6625 16.4291C32.0257 16.0659 32.5326 15.967 32.9751 16.101C33.2903 16.1965 33.5726 16.4095 33.7465 16.7297L37.5744 23.7499Z" fill="#748389"/>
<path d="M10.8936 19.0357L9.51029 23.7845H2.4L8.01218 12.6557C8.36588 11.9534 9.25302 11.7175 9.90946 12.1494L8.75833 16.199C8.55661 16.9086 9.08945 17.6138 9.82706 17.6138C10.5674 17.6138 11.1009 18.3246 10.8936 19.0357Z" fill="#2F373B"/>
<path d="M32.3158 19.2627L32.6423 20.188C32.7577 20.5145 32.733 20.874 32.5737 21.1816L31.2278 23.7845L30.3331 22.0734C30.1292 21.683 30.1448 21.214 30.3743 20.838L30.8158 20.1151C31.0389 19.7501 31.0603 19.2963 30.8729 18.9114L29.5381 16.174C29.9577 16.9461 31.0017 17.0972 31.623 16.4758L31.6352 16.4636C31.9984 16.1005 32.5053 16.0016 32.9478 16.1356L32.2898 18.5104C32.2212 18.7579 32.2303 19.0204 32.3158 19.2627Z" fill="#2F373B"/>
<path d="M14.4724 23.7845L15.4377 21.5067C15.612 21.0953 16.1472 20.9909 16.4631 21.3068C16.7326 21.5765 17.1781 21.5466 17.4094 21.2433L18.7754 19.4525C19.0525 19.0891 19.6125 19.1327 19.8301 19.5346L22.132 23.7845H14.4724Z" fill="#2F373B"/>
<path d="M25.5363 23.7845V22.0212C25.5363 21.6196 26.0151 21.4108 26.3096 21.6843L28.5679 23.7845H25.5363Z" fill="#2F373B"/>
<path d="M17.3671 14.6579C17.8322 15.1227 17.8322 15.8765 17.3674 16.3416L16.4982 17.211C16.0335 17.6761 15.2797 17.6761 14.8146 17.2113L13.4065 15.8032C13.0763 15.4727 12.9698 14.9796 13.1343 14.5422L13.7266 12.9691L17.7275 5.75196C18.0263 5.21302 18.6027 4.9994 19.1252 5.09797L17.0527 13.5321C16.953 13.9365 17.0723 14.3637 17.3671 14.6579Z" fill="#2F373B"/>
<path d="M25.0102 15.8316L25.1832 16.734C25.2379 17.0188 25.1497 17.3126 24.9476 17.5205L24.1981 18.2913C23.7962 18.7045 23.1132 18.6316 22.8077 18.1424C22.6817 17.9407 22.642 17.6965 22.6973 17.4649L24.2384 11.0367C24.3242 10.9665 24.4026 10.8841 24.4728 10.7877C24.7374 10.4236 25.1365 10.2466 25.5348 10.2466C25.6996 10.2466 25.8638 10.2768 26.0173 10.3372L25.1368 13.2962C24.8918 14.119 24.8485 14.9887 25.0102 15.8316Z" fill="#2F373B"/>
</g>
<defs>
<clipPath id="clip0">
<rect width="40" height="40" fill="white"/>
</clipPath>
</defs>
</svg>
