<svg viewBox="0 0 30 30" fill="none" xmlns="http://www.w3.org/2000/svg">
<path d="M13.1963 5.98291C13.1963 4.14193 11.7202 2.64456 9.90541 2.64456C8.09008 2.64456 6.61348 4.14193 6.61348 5.98291C6.61348 7.82388 8.09008 9.32125 9.90541 9.32125C11.7202 9.32179 13.1963 7.82388 13.1963 5.98291ZM8.44442 5.98291C8.44442 5.16621 9.09979 4.50193 9.90541 4.50193C10.711 4.50193 11.3653 5.16621 11.3653 5.98291C11.3653 6.7996 10.711 7.46388 9.90541 7.46388C9.09979 7.46388 8.44442 6.7996 8.44442 5.98291Z" fill="#A4A1A1"/>
<path d="M19.8108 9.1814H14.9303C15.5156 8.09484 15.9244 7.01648 15.9244 6.10746C15.9244 2.74016 13.2237 0 9.9054 0C6.58601 0 3.88591 2.74016 3.88591 6.10746C3.88591 7.01648 4.2941 8.09484 4.88 9.1814H0V29.7097H17.9799H19.8108H26.3753C28.3742 29.7097 30 28.0599 30 26.0326V14.3842L19.8108 14.3826V9.1814ZM9.9054 1.85791C12.214 1.85791 14.0929 3.7639 14.0929 6.10746C14.0929 7.71408 11.7439 10.9017 9.9054 12.9775C8.06692 10.9017 5.71739 7.71408 5.71739 6.10746C5.71739 3.7639 7.59572 1.85791 9.9054 1.85791ZM17.9799 27.8523H1.83148V11.0388H5.90048V10.8541C7.28931 12.8967 8.93823 14.6628 9.24626 14.9862L9.90594 15.6805L10.5656 14.9862C10.8726 14.6623 12.521 12.8978 13.9092 10.8558V11.0382H17.9799V14.382V27.8523ZM28.1696 16.2421V26.0326C28.1696 27.0362 27.3651 27.8523 26.3758 27.8523H19.8108V16.2405L28.1696 16.2421Z" fill="#A4A1A1"/>
<path d="M8.01091 22.614H6.17997V26.0337H8.01091V22.614Z" fill="white"/>
<path d="M8.01091 15.7751H6.17997V19.1948H8.01091V15.7751Z" fill="white"/>
<path d="M13.6292 22.614H11.7983V26.0337H13.6292V22.614Z" fill="white"/>
<path d="M13.6292 15.7751H11.7983V19.1948H13.6292V15.7751Z" fill="white"/>
<path d="M25.847 18.7955H22.2664V20.6528H25.847V18.7955Z" fill="white"/>
</svg>
